<?xml version="1.0" encoding="UTF-8" standalone="no"?>
<!-- Created with Inkscape (http://www.inkscape.org/) -->

<svg
   width="33.918278mm"
   height="34.497555mm"
   viewBox="0 0 33.918278 34.497555"
   version="1.1"
   id="svg1"
   xml:space="preserve"
   xmlns="http://www.w3.org/2000/svg"
   xmlns:svg="http://www.w3.org/2000/svg"><defs
     id="defs1" /><g
     id="layer10"
     transform="translate(-201.51438,-23.901057)"><path
       d="m 225.2133,23.901049 -1.34061,0.435018 c 0,0 0.66306,7.350869 -0.17875,7.350869 h -17.35508 c -0.84177,0 -1.51932,-0.677549 -1.51932,-1.519319 v -6.266568 h -1.96096 l -1.34421,0.437028 1.34421,33.620306 31.23402,0.437027 1.34005,-0.437027 V 31.907134 l -8.7477,-8.006085 z"
       style="fill:#0b87d4;fill-opacity:1;stroke:none;stroke-width:1.0066;stroke-linecap:square;stroke-linejoin:bevel;stroke-dasharray:none;stroke-dashoffset:0.161601;stroke-opacity:1;paint-order:stroke fill markers"
       id="path63" /><path
       id="rect59"
       style="fill:#119cf3;fill-opacity:1;stroke:none;stroke-width:1.0066;stroke-linejoin:round;stroke-dasharray:2.01322, 1.0066;stroke-dashoffset:0.402643;stroke-opacity:0.833333;paint-order:markers fill stroke"
       d="m 201.51661,24.34133 h 23.82698 l 8.74704,8.005396 v 26.05188 h -32.57402 z" /><path
       d="m 223.8719,24.338077 0.14545,-0.108128 -20.18146,0.0077 -0.35778,0.100473 v 6.266568 c 0,0.841769 0.67757,1.519319 1.51932,1.519319 h 17.35508 c 0.84177,0 1.51932,-0.67755 1.51932,-1.519319 z"
       style="fill:#dedede;stroke-width:1.13511;stroke-linejoin:round;stroke-dasharray:2.27022, 1.13511;stroke-dashoffset:0.454047;stroke-opacity:0.833333;paint-order:markers fill stroke"
       id="path64" /><rect
       style="fill:#dedede;fill-opacity:1;stroke:none;stroke-width:1.10313;stroke-linecap:butt;stroke-linejoin:round;stroke-dasharray:2.20628, 1.10313;stroke-dashoffset:0.441257;stroke-opacity:0.833333;paint-order:markers fill stroke"
       id="rect61"
       width="22.054615"
       height="14.100968"
       x="206.8239"
       y="42.688961"
       ry="1.4350164" /><path
       style="fill:#d2d2d2;fill-opacity:1;stroke:none;stroke-width:1.0066;stroke-linecap:square;stroke-linejoin:bevel;stroke-dasharray:none;stroke-dashoffset:0.610774;stroke-opacity:1;paint-order:stroke fill markers"
       d="m 223.87062,24.338058 1.33906,-0.435172 h -20.39243 l -1.34016,0.434999 z"
       id="path65" /><path
       style="fill:#dedede;fill-opacity:1;stroke:#626262;stroke-width:1.09879;stroke-linecap:round;stroke-linejoin:round;stroke-dasharray:none;stroke-dashoffset:0.610774;stroke-opacity:1;paint-order:stroke fill markers"
       d="M 209.74062,47.138259 H 226.0108"
       id="path68" /><path
       style="fill:#dedede;fill-opacity:1;stroke:#626262;stroke-width:1.09879;stroke-linecap:round;stroke-linejoin:round;stroke-dasharray:none;stroke-dashoffset:0.610774;stroke-opacity:1;paint-order:stroke fill markers"
       d="m 209.7215,50.819329 h 16.2702"
       id="path68-3" /></g></svg>
