<?xml version="1.0" encoding="UTF-8" standalone="no"?>
<!-- Created with Inkscape (http://www.inkscape.org/) -->

<svg
   width="33.611061mm"
   height="35.321232mm"
   viewBox="0 0 33.611061 35.321232"
   version="1.1"
   id="svg1"
   xml:space="preserve"
   xmlns="http://www.w3.org/2000/svg"
   xmlns:svg="http://www.w3.org/2000/svg"><defs
     id="defs1" /><g
     id="layer9"
     style="display:inline"
     transform="translate(-249.35711,-22.893163)"><path
       id="rect27"
       style="display:inline;fill:#e3774f;fill-opacity:1;stroke-width:1.42715;stroke-linecap:round;stroke-linejoin:round"
       d="m 251.85985,30.401765 0.45243,2.181712 0.55528,0.53195 4.31842,23.006696 -0.27358,0.557021 0.41983,1.535241 h 17.67061 l 0.41557,-1.534801 -0.29539,-0.572178 4.28179,-22.993204 0.62635,-0.550877 0.44423,-2.16156 z" /><path
       id="rect30"
       style="fill:#e3774f;fill-opacity:1;stroke:none;stroke-width:1.24159;stroke-linecap:round;stroke-linejoin:round;stroke-dasharray:none;stroke-opacity:1"
       d="m 250.72688,27.386302 -1.36813,2.748244 33.60702,-0.0134 -1.36809,-2.735881 z" /><path
       id="rect32"
       style="fill:#e3774f;fill-opacity:1;stroke:none;stroke-width:1.49061;stroke-linecap:round;stroke-linejoin:round;stroke-dasharray:none;stroke-opacity:1"
       d="m 260.06022,22.893163 0.47862,4.61206 h 2.05216 v -2.559891 h 3.57262 3.56992 v 2.559891 h 2.05216 l 0.5558,-4.61206 h -6.17788 z" /><path
       id="path36"
       style="fill:#b0502c;fill-opacity:1;stroke:none;stroke-width:0.696999;stroke-linecap:round;stroke-linejoin:round;stroke-dasharray:none;stroke-opacity:1"
       d="m 249.35814,30.117934 -0.001,0.271219 1.36949,0.617247 h 14.06859 1.36812 1.36544 14.06866 l 1.37076,-0.617247 -0.002,-0.271219 h -15.43677 -1.36544 -1.36812 z" /><path
       id="path37"
       style="fill:#b0502c;fill-opacity:1;stroke:none;stroke-width:1.49061;stroke-linecap:round;stroke-linejoin:round;stroke-dasharray:none;stroke-opacity:1"
       d="m 262.01552,24.396426 0.21403,2.990622 h 0.70706 l -0.34767,-2.442309 h 7.14387 l -0.27208,2.442309 h 0.72218 l 0.16535,-2.990622 z" /><path
       id="rect38"
       style="fill:#b0502c;fill-opacity:1;stroke-width:1.37734;stroke-linecap:round;stroke-linejoin:round"
       d="m 266.15908,32.582213 v 23.514514 h 1.29834 L 268.357,32.582213 Z m 6.17723,0 -2.11463,23.514514 h 2.68618 l 3.65778,-23.514514 z" /><path
       id="path39"
       style="fill:#b0502c;fill-opacity:1;stroke-width:1.37734;stroke-linecap:round;stroke-linejoin:round"
       d="m 266.17261,32.582213 v 23.514514 h -1.31737 l -0.89959,-23.514514 z m -6.17725,0 2.1718,23.514514 h -2.74332 l -3.65776,-23.514514 z" /></g></svg>
